<?xml version="1.0" encoding="UTF-8"?>
<svg width="25px" height="25px" viewBox="0 0 25 25" version="1.1" xmlns="http://www.w3.org/2000/svg" xmlns:xlink="http://www.w3.org/1999/xlink">
    <!-- Generator: Sketch 57.1 (83088) - https://sketch.com -->
    <title>Group 7</title>
    <desc>Created with Sketch.</desc>
    <g id="Page-1" stroke="none" stroke-width="1" fill="none" fill-rule="evenodd">
        <g id="SteveLanier-PortfolioSite-LandingPage-Desktop-1024px" transform="translate(-500.000000, -718.000000)" fill="#174AE7">
            <g id="Group-7" transform="translate(500.000000, 718.000000)">
                <path d="M11.9209561,14.6868772 C12.0877982,14.8577156 12.2799912,14.9429551 12.4970088,14.9429551 C12.714114,14.9429551 12.9058684,14.8578054 13.0726228,14.6868772 L24.7440263,2.73645808 C24.9108684,2.56552994 24.9937632,2.36882335 24.9937632,2.14660778 C24.9937632,1.92439222 24.9103421,1.72759581 24.7440263,1.55675749 L23.4919211,0.274302395 C23.3250789,0.103374251 23.132886,0.0180449102 22.9156053,0.0180449102 C22.6988509,0.0180449102 22.5067456,0.103374251 22.3399035,0.274302395 L12.4970088,10.3525958 L2.65455263,0.274302395 C2.48762281,0.103374251 2.29551754,0.0180449102 2.0785,0.0180449102 C1.86139474,0.0180449102 1.66928947,0.103374251 1.50244737,0.274302395 L0.250517544,1.55675749 C0.0833245614,1.72759581 -8.77192982e-06,1.92403293 -8.77192982e-06,2.14660778 C-8.77192982e-06,2.36918263 0.0835877193,2.56561976 0.250517544,2.73645808 L11.9209561,14.6868772 Z" id="Fill-1"></path>
                <path d="M23.4918947,10.3314551 C23.3251404,10.1605269 23.1328596,10.0751976 22.9156667,10.0751976 C22.6988246,10.0751976 22.506807,10.1605269 22.3398772,10.3314551 L12.4969825,20.4096587 L2.65461404,10.3311856 C2.48759649,10.1602575 2.29549123,10.0749281 2.07847368,10.0749281 C1.86145614,10.0749281 1.66926316,10.1602575 1.50242105,10.3311856 L0.250491228,11.6135509 C0.0833859649,11.784479 -3.50877193e-05,11.9811856 -3.50877193e-05,12.2033114 C-3.50877193e-05,12.4255269 0.0836491228,12.6222335 0.250491228,12.7934311 L11.9209298,24.7436707 C12.0877719,24.9145988 12.2800526,25.000018 12.4969825,25.000018 C12.7140877,25.000018 12.9058421,24.9145988 13.0726842,24.7436707 L24.744,12.7934311 C24.9109298,12.6224132 24.9937368,12.4257964 24.9937368,12.2037605 C24.9937368,11.9815449 24.9103158,11.7851078 24.744,11.6139102 L23.4918947,10.3314551 Z" id="Fill-4"></path>
            </g>
        </g>
    </g>
</svg>