<?xml version="1.0" encoding="UTF-8"?>
<svg width="26px" height="26px" viewBox="0 0 26 26" version="1.1" xmlns="http://www.w3.org/2000/svg" xmlns:xlink="http://www.w3.org/1999/xlink">
    <!-- Generator: Sketch 57.1 (83088) - https://sketch.com -->
    <title>Github-icon</title>
    <desc>Created with Sketch.</desc>
    <g id="Page-1" stroke="none" stroke-width="1" fill="none" fill-rule="evenodd">
        <g id="SteveLanier-PortfolioSite-LandingPage-Desktop-1024px" transform="translate(-12.000000, -12.000000)" fill="#174AE7" fill-rule="nonzero">
            <path d="M36.2561373,18.6369456 C35.0936413,16.5952012 33.5167896,14.9787493 31.5251673,13.7872253 C29.5332485,12.5956405 27.358667,12 24.9998814,12 C22.6413922,12 20.4660993,12.5958228 18.4745956,13.7872253 C16.4827954,14.9786885 14.906003,16.5952012 13.743507,18.6369456 C12.5811887,20.6786292 12,22.9081636 12,25.3254878 C12,28.2292427 12.8264583,30.8403734 14.47979,33.1595486 C16.1329439,35.478906 18.2685739,37.083811 20.8865022,37.9744457 C21.1912365,38.0324236 21.4168229,37.9916446 21.5634985,37.8531419 C21.7102334,37.7144569 21.7835119,37.5407665 21.7835119,37.3327998 C21.7835119,37.2980981 21.7806068,36.985905 21.7749746,36.3958557 C21.7691645,35.8058064 21.7664373,35.2910553 21.7664373,34.8518457 L21.3771007,34.9208843 C21.1288668,34.9674976 20.8157137,34.9872489 20.4376417,34.9816578 C20.0597474,34.9762489 19.6674465,34.9356523 19.2612725,34.8601717 C18.8549206,34.7853596 18.4769671,34.6118514 18.1271155,34.3400118 C17.7774418,34.0681722 17.5292079,33.7123438 17.382473,33.2730733 L17.2132091,32.8737919 C17.1003863,32.6079688 16.9227629,32.3126707 16.680102,31.9889914 C16.437441,31.6650082 16.1920528,31.445373 15.9438189,31.3297211 L15.8253045,31.2427543 C15.7463345,31.1849588 15.673056,31.1152517 15.6052911,31.0343622 C15.5375856,30.9534728 15.4868953,30.8725226 15.4530426,30.7914508 C15.4191305,30.7103183 15.4472324,30.6437713 15.5376449,30.591567 C15.6280573,30.5393626 15.7914518,30.5140201 16.0285398,30.5140201 L16.366949,30.5658598 C16.5926539,30.6122299 16.8718356,30.7507326 17.2048497,30.9822186 C17.5376859,31.2135223 17.8112946,31.5142293 18.025735,31.884218 C18.2854113,32.3586154 18.5982679,32.7200958 18.9651941,32.9688415 C19.3318238,33.2175872 19.7014772,33.3417473 20.0737984,33.3417473 C20.4461197,33.3417473 20.7676914,33.3128192 21.0386322,33.2552667 C21.3092766,33.1974104 21.563202,33.1104436 21.80029,32.9948525 C21.9018484,32.219505 22.1783621,31.6238646 22.6295942,31.2075057 C21.9864507,31.138224 21.4082263,31.033876 20.8946245,30.8951303 C20.3813192,30.7562022 19.85088,30.5307327 19.3036626,30.2181142 C18.7561487,29.905921 18.3019524,29.5182473 17.9409549,29.0557614 C17.5798981,28.5930325 17.2835826,27.9855412 17.0524232,27.2338345 C16.8211453,26.481824 16.7054767,25.614344 16.7054767,24.6311513 C16.7054767,23.2312351 17.1513137,22.0399542 18.0428096,21.05664 C17.6251933,20.0041656 17.664619,18.8243101 18.1612054,17.517195 C18.4884687,17.4129685 18.9737907,17.491184 19.6169341,17.751355 C20.2601962,18.0116477 20.7311707,18.2346254 21.0303321,18.4194982 C21.3294934,18.6043102 21.56919,18.7609234 21.7497777,18.8879399 C22.7994509,18.5872937 23.8826805,18.4369402 24.9997629,18.4369402 C26.1168452,18.4369402 27.2003119,18.5872937 28.2500445,18.8879399 L28.8932472,18.4717026 C29.3330962,18.193968 29.8525081,17.9394488 30.4502378,17.7080844 C31.0483233,17.4768414 31.5056619,17.4131509 31.8217792,17.5173773 C32.329393,18.8245532 32.3746289,20.0043479 31.9568939,21.0568223 C32.8483306,22.0401365 33.2943454,23.2317213 33.2943454,24.6313336 C33.2943454,25.6145263 33.1782618,26.4847411 32.9473396,27.2425251 C32.716121,28.0004307 32.4172561,28.6073142 32.0506264,29.064452 C31.6835817,29.521529 31.2264802,29.9061641 30.6792628,30.2182965 C30.1319269,30.530672 29.6013098,30.7561414 29.0880045,30.8950695 C28.574462,31.0339976 27.9962376,31.1384063 27.3530941,31.2078096 C27.9396779,31.7281518 28.2330291,32.5495048 28.2330291,33.671504 L28.2330291,37.3323136 C28.2330291,37.5402803 28.3035805,37.71391 28.4448017,37.8526557 C28.585845,37.9911584 28.8085856,38.0319374 29.1133199,37.9738988 C31.731604,37.0833856 33.867234,35.4784199 35.5203285,33.1590624 C37.1732452,30.8398872 38,28.2287565 38,25.3250016 C37.9994071,22.9079812 37.417922,20.6786292 36.2561373,18.6369456 Z" id="Github-icon"></path>
        </g>
    </g>
</svg>