<?xml version="1.0" encoding="UTF-8"?>
<svg width="24px" height="24px" viewBox="0 0 24 24" version="1.1" xmlns="http://www.w3.org/2000/svg" xmlns:xlink="http://www.w3.org/1999/xlink">
    <!-- Generator: Sketch 57.1 (83088) - https://sketch.com -->
    <title>LinkedIn-Icon</title>
    <desc>Created with Sketch.</desc>
    <g id="Page-1" stroke="none" stroke-width="1" fill="none" fill-rule="evenodd">
        <g id="SteveLanier-PortfolioSite-LandingPage-Desktop-1024px" transform="translate(-988.000000, -12.000000)" fill="#174AE7" fill-rule="nonzero">
            <path d="M1009.6,12 L990.4,12 C989.08,12 988,13.08 988,14.4 L988,33.6 C988,34.92 989.08,36 990.4,36 L1009.6,36 C1010.92,36 1012,34.92 1012,33.6 L1012,14.4 C1012,13.08 1010.92,12 1009.6,12 Z M995.2,32.4 L991.6,32.4 L991.6,21.6 L995.2,21.6 L995.2,32.4 Z M993.4,19.56 C992.2,19.56 991.24,18.6 991.24,17.4 C991.24,16.2 992.2,15.24 993.4,15.24 C994.6,15.24 995.56,16.2 995.56,17.4 C995.56,18.6 994.6,19.56 993.4,19.56 Z M1008.4,32.4 L1004.8,32.4 L1004.8,26.04 C1004.8,25.0800471 1003.96,24.24 1003,24.24 C1002.04,24.24 1001.2,25.0800471 1001.2,26.04 L1001.2,32.4 L997.6,32.4 L997.6,21.6 L1001.2,21.6 L1001.2,23.04 C1001.8,22.08 1003.12,21.36 1004.2,21.36 C1006.48,21.36 1008.4,23.28 1008.4,25.56 L1008.4,32.4 Z" id="LinkedIn-Icon"></path>
        </g>
    </g>
</svg>