<?xml version="1.0" encoding="UTF-8"?>
<svg width="110px" height="65px" viewBox="0 0 110 65" version="1.1" xmlns="http://www.w3.org/2000/svg" xmlns:xlink="http://www.w3.org/1999/xlink">
    <!-- Generator: Sketch 59.1 (86144) - https://sketch.com -->
    <title>SteveLanier-Signature</title>
    <desc>Created with Sketch.</desc>
    <g id="Page-1" stroke="none" stroke-width="1" fill="none" fill-rule="evenodd">
        <g id="SteveLanier-PortfolioSite-LandingPage-Desktop-1024px" transform="translate(-153.000000, -1059.000000)" fill="#FFFFFF">
            <g id="SteveLanier-Signature" transform="translate(153.000000, 1059.000000)">
                <path d="M91.4356334,27.8782775 C91.4910181,29.865494 91.7765507,31.8631904 91.0462186,34.0696352 C90.7793389,31.8164557 91.156988,29.8499158 91.4356334,27.8782775 M70.0229836,35.2402689 C70.0218357,36.7505082 69.7397467,38.1528327 69.1761427,39.5064399 C68.8854446,40.2040616 68.4885687,40.7138949 67.6440235,40.7467508 C66.8270272,40.7784737 66.475779,40.2570277 66.167289,39.6432451 C65.1781122,37.675289 65.0547162,35.6702283 65.8774519,33.6178664 C66.0332752,33.2286937 66.1463404,32.8205439 66.3271299,32.4435506 C66.6907176,31.6847488 67.3237678,31.4468267 68.0902579,31.8705547 C69.4243695,32.6072637 70.1965989,33.7002894 70.0229836,35.2402689 M65.3086824,27.0812382 C64.6543966,28.1040203 63.6502976,28.6974095 62.4516345,29.0845995 C61.7646345,25.1127156 61.5344866,21.251862 61.7115455,17.368066 C61.7637736,16.2232072 61.8326458,15.0806143 62.0550455,13.95275 C62.1242047,13.6015316 62.245018,13.2471975 62.2372699,12.8965455 C62.1873375,10.6190073 62.7807862,8.44315249 63.4844304,6.32677822 C64.0689831,4.56955311 64.747948,2.79108495 66.2674406,1.51197009 C67.3114282,0.633074291 68.5479709,0.551217738 69.6220901,1.42020011 C71.1269474,2.63785174 72.0001893,4.15517201 72.0337645,6.14607067 C72.0699224,8.31682715 71.7218309,10.4119584 71.2925276,12.5342807 C70.8752769,14.5957063 70.2327568,16.5846223 69.6545174,18.5902495 C69.2298056,20.0631009 68.5545712,21.4835529 67.8454746,22.8538712 C67.0921851,24.3097283 66.1945509,25.6961914 65.3086824,27.0812382 M62.8691722,39.5829149 C62.9753501,40.731739 63.3372161,41.8553547 63.5357975,42.9982308 C63.7022387,43.9570005 63.8000946,44.9270998 63.9467349,46.0306054 L63.8698276,46.0306054 C63.9780144,46.3968356 64.0480344,46.7789273 64.0655394,47.1729151 C64.0709918,47.2870611 64.0658264,47.3995076 64.060374,47.5116709 C64.1645432,47.6784997 64.1938139,47.9691046 64.2793302,48.4763886 C64.5866723,50.2981926 64.5476448,52.122829 64.5706021,53.9519972 C64.5860984,55.1784293 64.4552412,56.3754044 64.0862011,57.549437 C64.0035545,57.8128508 64.0115896,58.103739 63.9771535,58.3818813 C63.7897637,59.9003345 63.2987624,61.3465614 62.2909328,62.4840559 C60.940464,64.0087404 59.0774713,64.1520602 57.1720075,63.8365301 C55.060501,63.4870111 53.2216136,62.4330726 51.5198967,61.2717858 C49.7771434,60.0827415 48.1778738,58.6515264 47.0271344,56.8251906 C46.5765955,56.1100079 46.0878899,55.416918 45.5951668,54.7280767 C44.6114424,53.3532265 44.2191579,51.7500843 43.9505564,50.149208 C43.822282,49.3824755 44.1026492,48.540401 44.2705251,47.7405294 C44.3382494,47.1247642 44.5592144,46.5452537 44.8923836,46.0306054 L44.8539299,46.0306054 C45.4591443,44.6090205 46.2735579,43.3791895 47.1700442,42.1997754 C47.6240267,41.6024208 48.1176107,41.0325406 48.6132034,40.4674755 C48.9314503,40.1052107 49.3340657,39.9553763 49.8371196,39.8522767 C50.5094843,39.7151883 51.2332162,39.4478091 51.7491837,39.0184162 C52.9108279,38.0517158 53.9444846,36.9397129 54.6779734,35.5974354 C54.7901777,35.3918027 54.8656501,35.1349034 55.0372567,34.9983814 C56.5116954,33.8240656 57.9620289,32.6001827 59.9108248,32.2367849 C60.4483148,32.1362344 60.9826482,32.0206722 61.5818362,31.899162 C62.1316658,34.5324505 62.632998,37.0306332 62.8691722,39.5829149 M57.2658458,32.3308208 C56.8830313,32.644085 56.5191566,32.9417709 55.9994585,33.3671984 C56.2290325,32.0852511 56.3231578,32.0161404 57.2658458,32.3308208 M27.5271226,35.5501342 C26.5956262,32.7576645 27.2912353,29.8371699 26.509249,26.7597601 C27.6763456,27.9244457 28.175382,32.8432031 27.5271226,35.5501342 M26.8659496,38.0740918 C26.4518556,38.8555528 26.2412215,39.7729694 25.460383,40.3284043 C25.1530409,40.5470661 24.8359419,40.7713927 24.4898591,40.9132963 C23.5115871,41.3146483 22.569473,40.965979 22.155379,39.951411 C21.8052787,39.0946079 21.5670957,38.1834227 21.3719579,37.2770526 C20.8493901,34.8553449 20.374459,32.424007 20.3726952,29.9312058 C20.3718763,28.8350644 20.374172,28.8662209 21.4445606,28.5317137 C22.5717687,28.1790791 23.6754455,27.7530851 24.7940446,27.3726929 C25.1427101,27.2542983 25.5071587,27.1803725 26.0816676,27.0288387 C26.0816676,29.0625067 26.1287302,30.8324776 26.0661713,32.5984832 C26.0188217,33.9382116 26.2831187,35.2082627 26.7063957,36.4531055 C26.8914897,36.9977773 27.153204,37.5322524 26.8659496,38.0740918 M18.4787521,32.4098449 C18.2747182,33.1779936 18.1590703,34.0690688 17.5197069,34.6936144 C17.2092081,34.9972484 16.892396,35.2940847 16.5173296,35.6518176 C16.3396967,33.6337279 15.8748095,31.8694217 15.0271076,30.1141793 C16.2645113,29.7578625 17.4861317,29.4060776 18.7588323,29.039281 C19.2219978,30.2943204 18.7516581,31.3822478 18.4787521,32.4098449 M14.3174372,39.3061887 C13.2987027,39.6800664 12.2306099,40.027886 11.1464469,39.8035593 C9.2670971,39.4143867 7.41300044,38.9068194 5.57526092,38.2723603 C6.96647909,38.1545322 8.35970604,38.0514326 9.7492024,37.9149106 C11.3877865,37.7537466 13.02264,37.5560446 14.6615111,37.3960137 C14.8747279,37.3750538 15.1011452,37.484668 15.5074912,37.575305 C15.0796227,38.2933201 15.0308382,39.0441911 14.3174372,39.3061887 M3.84484723,36.9629387 C4.40787735,35.2312052 4.92614056,33.5847272 5.48170953,31.9507118 C5.76351156,31.1210999 5.82549653,31.0723825 6.71021716,31.1021228 C8.3344529,31.156505 9.92798312,31.0562378 11.4974081,30.5840756 C12.1201274,30.3968535 12.7956488,30.3804255 13.445917,30.2767594 C13.8304534,30.2152962 14.1165599,30.3555004 14.257174,30.698788 C14.8598056,32.1719228 15.4153746,33.660919 15.4627242,35.2762405 C15.4859686,36.0732797 15.3114924,36.3500059 14.5825951,36.438377 C13.455387,36.5746157 12.3187089,36.6355125 11.1860484,36.7295484 C9.7219405,36.8507754 8.23315339,36.8504921 6.80233371,37.1357155 C5.77154665,37.3413482 4.84722451,37.2883822 3.84484723,36.9629387 M8.30489525,25.1175307 C10.0645796,26.1468273 11.7040246,27.256281 13.03211,29.0265351 C10.7426837,29.2927814 8.68799679,30.0297736 6.35294269,29.5986813 C7.07897033,28.0853264 7.25832498,26.4651898 8.30489525,25.1175307 M4.20786105,18.9890523 C3.86866553,17.6586709 3.80754146,16.3016648 4.26755027,14.9772315 C4.66126961,13.8431358 5.3577396,13.1129414 6.67865074,12.926569 C8.35511456,12.6900631 10.0005859,12.2433925 11.665284,11.9170993 C12.0219846,11.8474221 12.4047991,11.9071859 12.9445849,11.9071859 C12.1746512,13.5689589 11.4933905,15.052007 10.801799,16.5299568 C9.77818612,18.717991 8.49257196,20.788197 7.86870474,23.2342635 C6.07745395,22.1647467 4.70259292,20.9284012 4.20786105,18.9890523 M109.982339,33.6869771 C109.794089,33.7787471 109.664092,33.8994076 109.621047,34.0449933 C109.20064,35.4606302 108.261396,36.4916262 107.110082,37.3625913 C105.636504,38.4777098 103.275623,38.7060018 101.862882,36.9297995 C101.100123,35.9707466 100.799955,34.866108 100.727926,33.6770637 C100.621461,31.9187056 101.268286,30.2617477 101.433579,28.5413439 C101.519095,27.6559335 101.642492,26.7555115 101.563575,25.8780319 C101.461702,24.7484681 100.886906,24.4504989 99.8199613,24.8345732 C99.3788923,24.993188 98.9699637,25.2384744 98.5435301,25.4378759 C98.1179573,25.6364276 97.7018545,25.8650028 97.2587768,26.0128544 C96.3812304,26.3062918 96.2658695,26.2436956 96.146491,25.3908579 C96.0807755,24.9212449 96.1212379,24.432938 95.3980799,24.334087 C95.1432528,24.9674131 95.0913117,25.6488902 95.3954972,26.2119726 C95.8529233,27.0582957 95.8153306,27.9320932 95.8385749,28.8217521 C95.8649759,29.8317884 95.7550674,30.8735475 95.9711539,31.8436468 C96.2506602,33.0998192 95.9731627,34.2727188 95.7430148,35.4526994 C95.6187579,36.0894245 95.1736714,36.5746157 94.4301387,36.8051736 C92.778928,37.316423 91.7498628,37.0649053 91.1150908,35.7319747 C91.4264505,35.2988997 91.7613415,34.897831 92.0184643,34.4528599 C92.197245,34.1435611 92.3654079,33.7759147 92.3731561,33.4309275 C92.4110358,31.6385806 92.4144794,29.8445342 92.3869305,28.0516208 C92.3800433,27.5927709 92.2583691,27.1228746 92.109433,26.684418 C92.0285082,26.4479121 91.7980733,26.1284166 91.5989179,26.1009423 C91.3902926,26.0720517 91.0961509,26.3102571 90.9185181,26.5028608 C90.7753213,26.6577934 90.7228063,26.9135597 90.6763176,27.133921 C90.1827336,29.4715062 89.9218802,31.8374155 89.8091019,34.2214522 C89.7959014,34.4961957 89.6957498,34.7669738 89.6199904,35.1128106 C89.4185393,34.9397506 89.3014565,34.888484 89.2939954,34.8250381 C89.1685906,33.7085034 88.9849314,32.5916854 88.9651307,31.4720351 C88.9496345,30.6225963 88.4609289,29.9694433 88.2368073,29.2129075 C88.187162,29.0455123 87.7905729,28.9208864 87.5426331,28.8985104 C87.4519514,28.8902964 87.2748924,29.2262198 87.2332822,29.4247715 C87.1764626,29.697249 87.1776105,29.9921026 87.2120466,30.2705282 C87.4126368,31.8937804 87.4602734,33.5606518 87.8933073,35.1224408 C88.2721043,36.4876608 87.6172446,37.2923476 86.8430064,38.0976008 C85.7519562,39.2319797 84.7085426,38.569763 84.1245638,37.6792543 C83.9724711,37.446997 83.8955638,37.1665887 83.7853683,36.9077067 C83.2137292,35.5642963 82.8679334,34.1625382 82.6294634,32.7270745 C82.483684,31.8512943 82.2873983,30.9820287 82.0675812,30.1212603 C81.9088882,29.4995471 81.3659458,29.3491463 80.9343468,29.8023313 C80.6465184,30.1039826 80.3868129,30.4540681 80.2017189,30.8245469 C79.5488679,32.1314193 79.1657664,33.5269461 78.9037651,34.9561785 C78.7918478,35.5674119 78.6520947,36.1675989 78.3915282,36.7986591 C77.7165808,35.3776407 77.1119404,34.0781325 76.4820468,32.7908036 C76.233533,32.2838028 75.960914,31.6722862 75.3106457,31.6821996 C74.6176194,31.6926796 74.3312258,32.3472487 73.9989175,32.855949 C73.8973311,33.0117313 73.8043536,33.1918724 73.774509,33.3717302 C73.6522609,34.107023 73.5480917,34.8457147 73.4519576,35.5849728 C73.3081869,36.6935768 73.1767558,37.803597 73.0398723,38.9133339 C72.9580866,38.8697149 72.8364124,38.8470556 72.8002545,38.7793611 C71.7347444,36.8125379 71.2055764,34.7089094 71.1636792,32.4812216 C71.1593747,32.2506637 71.1889323,31.936833 71.0563534,31.8054093 C70.4221553,31.1768983 70.5903182,30.3954373 70.6061014,29.666659 C70.6227456,28.8948282 70.4852882,28.1708651 70.1877029,27.475226 C69.7819309,26.5260865 69.0171627,26.1315323 68.0061764,26.3193208 C67.6641112,26.3827667 67.3274984,26.4765194 66.9177089,26.5731045 C67.7843506,24.7311904 68.5881464,23.0303302 69.3856289,21.3263543 C70.8224749,18.2560255 71.6876817,15.0126366 72.3167144,11.7046688 C72.5603497,10.4241377 72.7216254,9.12632899 72.8656831,7.83050293 C73.0123235,6.51145113 72.8421518,5.17143953 72.4180139,3.95378789 C71.8696191,2.3798195 70.8230488,1.13101139 69.2065612,0.350683344 C68.0190899,-0.22287901 67.0611926,-0.0540675717 66.0060133,0.575576435 C64.9752262,1.19105841 64.3263929,2.09516262 63.8164517,3.10718153 C62.9280005,4.86950497 62.1988162,6.68366146 61.9167272,8.66351373 C61.7663563,9.71801874 61.25785,10.7300377 61.1637246,11.7834097 C60.9591169,14.0731273 60.8190767,16.3778566 60.8365818,18.6752217 C60.8529389,20.7808328 60.5375617,22.9105194 61.0977221,24.9968701 C60.8670003,26.2502101 61.1436369,27.4661623 61.354271,28.6917447 C61.5462522,29.8108285 61.3978901,30.023259 60.3656682,30.608151 C59.4841042,31.1077876 58.6100014,31.5439782 57.5574048,31.1097703 C57.3516491,31.0247981 57.1114574,31.019983 56.8276466,30.967017 C56.973713,30.357483 57.3129085,29.8074297 56.9039799,29.1270856 C56.6201691,29.6434333 56.3926039,30.0575312 56.1575776,30.4849413 C54.2756451,29.2021444 54.6435373,27.2797899 54.4541388,25.4061529 C54.2280085,25.6457745 54.0856726,25.7602037 53.9889646,25.9049397 C53.4540573,26.7045281 53.9278405,27.5378222 53.9169358,28.3561045 C53.9080398,29.0435296 54.1066212,29.6468322 54.5577341,30.1781917 C54.8619196,30.5364911 55.1635223,30.904704 55.404288,31.3040734 C55.5345712,31.5193363 55.6731765,31.898029 55.571877,32.0529617 C55.0386915,32.8698278 54.8386752,33.8883612 54.02914,34.5372656 C52.4820985,35.7772932 50.9456748,37.0306332 49.3969115,38.2689614 C48.4335618,39.0385263 47.6768287,38.9150334 46.8954163,37.9078295 C46.0353749,36.7997921 45.6712132,35.4937693 45.3506706,34.1730181 C45.1308535,33.2669312 44.9810565,32.3438498 44.7371342,31.444844 C44.6694099,31.1970084 44.3767031,31.0086533 44.1132669,30.7084182 C43.8056378,31.2876454 43.5361754,31.6844656 43.3757606,32.1206562 C43.037426,33.0431711 42.7361102,33.9804144 42.4583257,34.9230394 C42.278971,35.5322901 41.9747855,36.0441059 41.48608,36.4494233 C40.8708218,36.9595398 40.3614546,36.8870302 40.0199633,36.1715642 C39.7390222,35.5827069 39.4979695,34.9618434 39.3424332,34.3302167 C38.8052301,32.1469976 38.4648867,29.9340382 38.4192589,27.6805755 C38.4120847,27.3194436 38.2754882,26.9557626 38.1618491,26.6048274 C38.127987,26.5003116 37.9489193,26.3499108 37.8731599,26.3683215 C37.7070057,26.4085416 37.4828841,26.5122077 37.4303691,26.6461806 C37.3307914,26.8991145 37.2914768,27.1942512 37.307547,27.4672953 C37.3316523,27.8802601 37.5087112,28.2966239 37.4745621,28.6991089 C37.2630671,31.1916268 37.4157338,33.7252146 36.6988891,36.1613676 C36.5450745,36.6839466 36.2962738,37.2181385 35.9550695,37.6396006 C35.3131233,38.4340907 34.9699102,38.3751767 34.5078926,37.5010959 C34.2877886,37.0847322 33.9996733,36.6703511 33.9150179,36.2233973 C33.5841444,34.4780683 33.0983085,32.747751 33.2564276,30.9398259 C33.297177,30.4707793 33.2822547,29.9957847 33.2641757,29.5244722 C33.2555667,29.2973132 33.226583,29.0469285 33.1183963,28.8554578 C33.0478023,28.7305486 32.8236807,28.6554899 32.6583875,28.6345301 C32.591811,28.6263161 32.4589451,28.8112722 32.4268047,28.9274009 C32.3771594,29.1058425 32.3900729,29.3004289 32.3737157,29.4882174 C32.2798774,30.5600001 32.2084225,31.6346152 32.0850265,32.702999 C31.9297771,34.046976 31.8052332,35.4014329 31.5260139,36.7221841 C31.3452244,37.5778542 30.9500703,38.3992521 30.5741429,39.2016729 C30.3856053,39.6041579 29.6836829,39.774952 29.47104,39.49596 C29.0184924,38.9008713 28.607842,38.257915 28.2976302,37.5821028 C28.1682078,37.2994286 28.3312054,36.8813654 28.3762592,36.5270313 C28.4764109,35.7413217 28.678149,34.9556121 28.6709748,34.1718851 C28.6597831,32.9584821 28.448575,31.7470618 28.4330788,30.5336587 C28.4167217,29.2426478 27.9768006,28.0564358 27.6631451,26.8387842 C27.5604108,26.4396981 27.3179233,26.064121 27.0849057,25.7129026 C26.9110035,25.4520379 26.5772603,25.3313774 26.3758092,25.6418091 C25.9754896,26.2587073 25.3418655,26.4093914 24.7091023,26.5748039 C23.3066924,26.9413173 21.899404,27.2911196 20.3449014,27.6853906 C20.4117648,27.1118282 20.436157,26.7002795 20.5110555,26.2980778 C20.7412034,25.0586166 21.0577285,23.8313348 21.2184303,22.5839429 C21.4749792,20.5907783 21.6308025,18.5845846 21.8354103,16.5849055 C21.8689855,16.2540804 21.934701,15.926371 22.0250958,15.3383633 C21.4124203,15.8207222 21.2654929,16.2161262 21.203508,16.6962191 C20.9308889,18.816842 20.6347385,20.9346325 20.3141958,23.2985591 C19.8498825,22.2800256 20.0762998,21.4897842 20.0731432,20.7131383 C20.0628124,18.2135394 20.3426056,15.7527444 21.3116947,13.4262056 C21.6009579,12.7308497 21.4416909,12.2983412 21.0149703,11.8341098 C20.0346896,12.2717166 19.6759803,12.9554596 19.7528875,13.9065818 C19.7870367,14.3280439 19.7979414,14.7631015 19.7316519,15.1783324 C19.3453938,17.5932423 19.1677609,20.0208981 19.1947358,22.465265 C19.2099451,23.8809019 19.2070754,25.296822 19.1981795,26.7127421 C19.1915792,27.8091667 18.9318737,28.0994884 17.8101179,28.2490395 C16.8708735,28.3742319 15.8750964,28.3206994 15.0021415,28.6223507 C14.2677918,28.8758511 13.9538494,28.5640031 13.5328682,28.1787958 C12.3809808,27.1237243 11.2285196,26.0683696 10.0574054,25.0342579 C9.57845677,24.6108131 9.05101061,24.2409008 8.49945918,23.8106582 C9.94204453,20.7054908 11.3341236,17.7266487 12.706115,14.7390261 C13.0189095,14.0581155 13.2453268,13.3392507 13.5417642,12.6504094 C13.7917128,12.0694828 14.0479747,11.4681628 13.5236852,10.9484162 C13.0220661,10.4513288 12.2624633,10.5521625 11.7579745,10.771674 C10.2069155,11.4460701 8.54279127,11.5089495 6.93663448,11.8723473 C4.89600898,12.3343128 3.43620559,13.3817368 3.02153763,15.6281185 C2.8499311,16.5591306 3.10619302,17.3850604 3.09873187,18.2577249 C3.08840104,19.4651799 3.63306525,20.4709675 4.32379589,21.3487303 C5.24381352,22.518231 6.33802039,23.5540422 7.38975607,24.6821898 C6.71222594,26.2037586 6.0091557,27.7825421 5.27021453,29.441766 C4.89830472,29.2143237 4.59096258,29.0262519 4.19896505,28.7857806 C3.92146754,29.1035766 3.66118806,29.4015458 3.36216799,29.744267 C3.90051891,30.1617637 4.33986607,30.502219 4.85152902,30.898756 C4.04543747,32.9652799 3.24996371,35.00263 2.46367292,37.0181706 C1.72731445,37.0181706 1.10602993,36.9901298 0.489623863,37.0354483 C0.31026921,37.0484774 0.0336325936,37.2501447 0.00522281655,37.402245 C-0.0286393419,37.5829525 0.107383227,37.8622278 0.26205868,37.9905358 C0.424769221,38.1250751 0.70226674,38.2007004 0.918640193,38.18144 C1.70005255,38.1114796 2.01916034,38.5420054 2.08171925,39.3435765 C2.71103885,38.6943889 3.30362663,38.6751285 4.01587982,38.8685819 C6.29038379,39.4854801 8.49773738,40.3145255 10.8666536,40.6428014 C12.1298843,40.8181274 13.2261,40.8050983 14.4198845,40.3436993 C15.6102255,39.8834332 16.1534549,39.0297458 16.3098521,37.9299223 C16.3982381,37.310475 16.5968196,36.8830648 17.0631417,36.5009731 C18.1214776,35.6339735 18.8601318,34.5757863 19.0400604,33.1845082 C19.0891318,32.8063819 19.2524163,32.4427008 19.4297622,31.8498781 C19.5913249,32.2767218 19.7107033,32.476973 19.740261,32.6894035 C19.9549126,34.2163539 20.1345542,35.7478362 20.3583888,37.2733704 C20.5497961,38.5788267 20.9400718,39.8239527 21.6167411,40.9756092 C22.0885156,41.77803 22.7537061,42.2184693 23.7081598,42.1657865 C24.9909043,42.0946931 25.9307227,41.4183144 26.6831513,40.4552961 C27.0257904,40.0171228 27.3104622,39.5350472 27.6631451,39.011052 C28.1214322,39.4809482 28.4993683,39.9052427 28.9166189,40.2873344 C29.5031804,40.8243587 29.7416503,40.8393705 30.4424248,40.4411341 C30.6467457,40.3252887 30.82897,40.1686566 31.0120552,40.019672 C32.0118498,39.2096037 32.1553335,38.0202761 32.433405,36.8890129 C32.5060077,36.5935928 32.6018549,36.3029879 32.7275466,35.8718956 C33.1482409,36.8453938 33.4317647,37.6806705 33.8550417,38.440322 C34.4860831,39.572435 35.3662123,39.6732686 36.2902474,38.7881415 C37.2931987,37.8268227 37.7365634,36.6088878 37.8852125,35.2671768 C37.925101,34.9057617 37.818636,34.4854325 38.2789318,34.335315 C38.4786612,35.0538966 38.6077965,35.799386 38.8916073,36.4817128 C39.5656938,38.1015662 41.1035524,38.3703616 42.2783971,37.0498936 C42.7343884,36.5369447 43.0173383,35.8602828 43.3152105,35.2286561 C43.5797945,34.6689725 43.7559925,34.0685023 44.0630476,33.2371909 C44.2314975,34.1194856 44.3124224,34.7219385 44.4676717,35.305131 C44.6232081,35.8905895 44.8186329,36.4709496 45.0588247,37.0278008 C45.337757,37.6750057 45.5785227,38.3842404 46.0310704,38.8997384 C46.4850529,39.4169358 47.1792271,39.7287838 47.74484,40.1145576 C46.4526256,41.6174326 45.2479362,43.1897015 44.4685326,45.0180201 C44.4670978,45.0214189 44.465376,45.0245346 44.4636542,45.0282167 C44.3609199,45.4389157 44.2168622,45.8187414 43.9666266,46.377292 C43.9244424,46.8942062 43.7694799,47.3898774 43.5376103,47.85071 C43.4472155,48.4092606 43.3614122,48.8995502 43.3261152,49.3918225 C43.1215075,52.2315934 44.3741204,54.6031675 45.9977822,56.7713748 C47.0389,58.1612368 48.3164791,59.3888019 49.559909,60.6183496 C50.3631309,61.4128397 51.2139894,62.2212086 52.1893917,62.7715452 C53.9043092,63.7385288 55.6416101,64.6205403 57.6951491,64.9210586 C59.7438097,65.2212937 61.310078,64.6567951 62.7606985,63.3697495 C64.0397124,62.2350874 64.475329,60.6877436 64.8328904,59.1350182 C65.189304,57.5868247 65.2874468,55.984249 65.5373955,54.4258589 C65.81518,52.6955416 65.5158729,51.0637921 65.3310659,49.4107996 C65.2555934,48.7324382 65.189017,48.0886321 65.1982,47.3332293 C65.0759518,46.9429236 64.9993315,46.5330744 64.9803917,46.1107626 C64.9755132,46.0056803 64.9806786,45.9022974 64.9846962,45.7986313 C64.9229982,45.6740054 64.8945884,45.4893325 64.8658916,45.2106237 C64.8228465,44.7911443 64.8960232,44.3260631 64.7356084,43.9584167 C64.1570821,42.6334169 64.4055959,41.1846408 64.0181898,39.8296175 C63.8023903,39.0753476 63.8155908,38.2598977 63.6890382,37.4781535 C63.5180056,36.423082 63.3093802,35.374525 63.1214166,34.3222859 C62.94981,33.3623833 62.7627072,32.4041801 62.6355807,31.4383294 C62.6117624,31.2576219 62.8031697,31.0123355 62.9546885,30.8514548 C64.0620958,29.6751563 65.3170045,28.6631374 66.6910046,27.8125656 C67.2015197,27.4961858 67.8078819,27.2783737 68.4004697,27.1582797 C69.0048231,27.0356365 69.2513281,27.2741251 69.4240825,27.8666646 C69.7836528,29.1013107 69.7945575,30.3481361 69.6169247,31.6167711 C68.9290637,31.4740178 68.9290637,31.4740178 68.5729371,31.2035229 C67.5005398,30.3886395 66.43216,30.6101337 65.7939444,31.8048429 C65.5967977,32.1741887 65.4871762,32.5880033 65.3190132,32.9734939 C64.3565244,35.1790889 64.2216497,37.4132913 65.1189969,39.6659044 C65.497507,40.6164601 66.1434707,41.4007535 67.1943455,41.5913744 C68.6266,41.8508229 69.746347,40.975326 70.0539761,39.5449606 C70.2450964,38.6564346 70.4832794,37.7772556 70.7484373,36.6981087 C71.1923759,37.727122 71.5594073,38.5864742 71.9333259,39.4424275 C72.1735176,39.9921976 72.3772645,40.5861533 73.1807734,40.6133444 C73.7541343,39.7554084 74.0847208,38.8867093 74.0720942,37.8392853 C74.0577459,36.67375 74.2207434,35.5042492 74.3392609,34.3395636 C74.3716883,34.0209178 74.5275116,33.7153012 74.6158976,33.4006208 C74.7154753,33.0445873 74.947345,32.7460516 75.30835,32.8341394 C75.5755167,32.8992848 75.9015117,33.167797 75.9939152,33.4198812 C76.5259529,34.8675242 76.9928489,36.3381098 77.4890156,37.7982154 C77.6545958,38.2848229 77.811854,38.7779449 78.0348277,39.2390607 C78.1146046,39.4044732 78.3659881,39.5466601 78.5596911,39.5789495 C78.6681648,39.5967937 78.8627288,39.3911609 78.9427927,39.2458585 C79.3855835,38.440322 79.4799957,37.5676575 79.4851612,36.6593047 C79.4966399,34.8105928 80.0203554,33.0695124 80.7756538,31.3935774 C80.8715009,31.1805804 81.0873004,31.0205494 81.3742678,30.6900076 C81.5289433,31.7258187 81.628234,32.5576966 81.7826225,33.379661 C81.9375849,34.2036081 82.087095,35.0369021 82.3482354,35.8313922 C82.6532817,36.7595719 82.98559,37.7010639 83.4682693,38.546254 C84.3638947,40.1134246 86.1663372,40.2454148 87.4226807,39.0127514 C88.0408086,38.4060499 88.54788,37.7747064 88.7717146,36.9026084 C88.9614001,36.1616508 89.420835,36.057135 90.0527373,36.4887938 C90.2008125,36.590194 90.3313827,36.7354964 90.4286647,36.8870302 C91.2376259,38.1429193 92.4896648,38.3916046 93.8186111,38.1777579 C94.9148267,38.0015822 96.0021464,37.452945 96.3680299,36.3868272 C96.754575,35.260379 96.8398043,34.015253 96.9241728,32.8131796 C96.9789836,32.0322851 96.7858545,31.2360956 96.7238695,30.4455709 C96.6409359,29.3845513 96.5775161,28.3221156 96.5161051,27.4114968 C97.3973821,26.9767224 98.182525,26.5731045 98.9828772,26.2012095 C99.5071667,25.9579057 99.9996029,25.4288122 100.729648,25.9513912 C100.686316,26.49493 100.697795,27.0636773 100.587599,27.6083491 C100.141078,29.8156436 99.8480841,32.0342678 99.82197,34.2897132 C99.8099174,35.3164607 100.106068,36.2299118 100.594486,37.1048423 C101.43157,38.6029021 102.76023,39.3084547 104.456207,39.350091 C106.773182,39.4064559 108.289231,38.1160114 109.396639,36.2930745 C109.860665,35.5288912 110.064125,34.629602 109.982339,33.6869771" id="Fill-1"></path>
                <path d="M91.2015595,20 C90.904575,19.8316923 90.6282598,19.755608 90.5760427,19.632131 C90.1851401,18.7081037 89.722439,17.785101 90.2097981,16.7985666 C90.5811194,16.0464335 90.7899876,15.2374292 91.3143338,14.5452412 C91.7447618,13.9765302 92.5222157,13.5361634 93.1731157,13.0573701 C93.2634077,12.9912767 93.569095,12.9797488 93.6731665,13.0361075 C93.8345317,13.1239759 94.0361476,13.3181574 93.9944464,13.4213964 C93.8682552,13.7329066 93.6764301,14.0415989 93.4327505,14.3172444 C92.5142381,15.3573196 91.575419,16.3894533 91.4213062,17.6554759 C91.3342778,18.37405 91.2849617,19.095442 91.2015595,20" id="Fill-4"></path>
            </g>
        </g>
    </g>
</svg>